<?xml version="1.0" encoding="UTF-8"?>
<svg viewBox="0 0 24 24" xmlns="http://www.w3.org/2000/svg">
<rect x="2" y="2" width="20" height="20" rx="2" fill="#FF4B55"/>
<path d="m8.2289 9.8448c-0.14365-0.07398-0.31421-0.07398-0.45786 0l-1.3019 0.67048c-0.37553 0.1934-0.80682-0.1371-0.71767-0.55002l0.26543-1.2293c0.03889-0.18009-0.02441-0.36697-0.16474-0.48635l-0.9683-0.8238c-0.33412-0.28426-0.16633-0.83029 0.26976-0.87787l1.389-0.15156c0.16875-0.01842 0.31664-0.1212 0.39273-0.27295l0.6177-1.232c0.18445-0.36787 0.70949-0.36786 0.89394 0l0.6177 1.232c0.07609 0.15175 0.22398 0.25453 0.39273 0.27295l1.3889 0.15156c0.4361 0.04758 0.6039 0.59361 0.2698 0.87787l-0.9683 0.8238c-0.1403 0.11938-0.20362 0.30626-0.16473 0.48635l0.26543 1.2293c0.0892 0.41292-0.34214 0.74342-0.71767 0.55002l-1.3019-0.67048z" fill="#FFC107"/>
</svg>
