<?xml version="1.0" encoding="UTF-8"?>
<svg fill="none" viewBox="0 0 340 342" xmlns="http://www.w3.org/2000/svg">
<g clip-path="url(#v)">
<path d="m300.01 294.42c-6.748 7.11-13.133 11.694-18.177 15.316-59.294 42.578-129.46 30.167-144.37 27.136-22.02-4.476-64.582-13.127-95.354-49.343-46.555-54.791-39.306-141.11-3.1946-198.1 6.6054-10.423 41.497-68.274 112.41-77.551 42.918-5.6146 92.947 5.7094 129.18 36.086 76.049 63.764 70.635 192.58 19.502 246.45z" fill="#FFB033" fill-opacity=".8" opacity=".1"/>
<path d="m174.65 230.08-6.002 53.87h69.632l-9.07-53.87h-54.56z" fill="url(#u)"/>
<path d="m53.487 93.509v126.95c-2e-4 5.021 1.9597 9.845 5.4618 13.442 3.5022 3.596 8.2696 5.681 13.286 5.811 46.333 1.196 208.38 4.095 252.49 3.444 3.649-0.055 7.135-1.517 9.733-4.082 2.597-2.565 4.104-6.035 4.208-9.685 0.85-29.493 2.232-100.42-2.88-133.34-0.52-3.3604-2.197-6.4332-4.741-8.6871-2.544-2.2538-5.796-3.5471-9.192-3.6561-38.821-1.2429-210.61-5.1895-254.69-4.1986-3.6551 0.0819-7.1328 1.5927-9.6887 4.2089-2.5558 2.6162-3.9865 6.1299-3.9858 9.7888z" fill="url(#j)"/>
<path d="m61.447 92.891v120.62c0 2.93 1.1519 5.743 3.2069 7.831 2.055 2.087 4.8482 3.282 7.776 3.326l245.95 3.041c1.435 0.021 2.86-0.242 4.193-0.776 1.333-0.533 2.546-1.326 3.57-2.332 1.025-1.006 1.839-2.206 2.397-3.529 0.558-1.324 0.848-2.745 0.854-4.181l0.411-119.54c8e-3 -2.078-0.799-4.0763-2.246-5.5662-1.448-1.4899-3.421-2.3526-5.497-2.4032l-251.81-5.0911c-1.1465-0.0279-2.2869 0.1739-3.3542 0.5937s-2.04 1.049-2.8607 1.8506-1.4729 1.7594-1.9181 2.817c-0.4453 1.0576-0.6747 2.1937-0.6747 3.3414z" fill="url(#h)"/>
<path d="m331.25 232.7h-7e-3l-269.8-4.6c-0.1048-2e-3 -0.2047-0.045-0.2775-0.121-0.0729-0.075-0.1129-0.177-0.1111-0.282 0.0018-0.104 0.0452-0.204 0.1205-0.277 0.0754-0.073 0.1767-0.113 0.2816-0.112l269.8 4.601c0.104 2e-3 0.203 0.045 0.276 0.119 0.073 0.075 0.113 0.176 0.112 0.28s-0.043 0.204-0.117 0.277c-0.074 0.074-0.174 0.115-0.278 0.115z" fill="#7D97F4"/>
<path d="m253.28 294.97h-101.91c-2.768 0-4.847-1.972-4.312-4.091l1.308-5.175c0.393-1.557 2.104-2.7 4.136-2.763l98.246-3.068c2.123-0.067 4.003 1.061 4.465 2.679l2.358 8.244c0.612 2.142-1.477 4.174-4.29 4.174z" fill="url(#g)"/>
<path d="m61.447 92.891v120.62c0 2.93 1.1519 5.743 3.2069 7.831 2.055 2.087 4.8482 3.282 7.776 3.326l245.95 3.041c1.435 0.021 2.86-0.242 4.193-0.776 1.333-0.533 2.546-1.326 3.57-2.332 1.025-1.006 1.839-2.206 2.397-3.529 0.558-1.324 0.848-2.745 0.854-4.181l0.411-119.54c8e-3 -2.078-0.799-4.0763-2.246-5.5662-1.448-1.4899-3.421-2.3526-5.497-2.4032l-251.81-5.0911c-1.1465-0.0279-2.2869 0.1739-3.3542 0.5937s-2.04 1.049-2.8607 1.8506-1.4729 1.7594-1.9181 2.817c-0.4453 1.0576-0.6747 2.1937-0.6747 3.3414z" fill="#F39C12"/>
<path d="m329.76 111.33 0.048-14.008c7e-3 -2.0766-0.8-4.0732-2.247-5.5609-1.448-1.4877-3.421-2.3477-5.496-2.3953l-251.74-5.0846c-4.8294-0.1176-8.7433 3.7749-8.7433 8.6093v18.44h268.18z" fill="#D98B10"/>
<path d="m80.448 101.35c0.3659-1.5512-0.5939-3.1053-2.1436-3.4714-1.5498-0.3661-3.1027 0.5944-3.4685 2.1454-0.3659 1.551 0.5939 3.105 2.1436 3.471 1.5498 0.366 3.1027-0.594 3.4685-2.145z" fill="#fff"/>
<path d="m90.437 101.35c0.3659-1.5512-0.5939-3.1053-2.1436-3.4714-1.5498-0.3662-3.1027 0.5943-3.4686 2.1454-0.3658 1.551 0.5939 3.105 2.1437 3.471s3.1027-0.594 3.4685-2.145z" fill="#fff"/>
<path d="m100.16 101.15c0.255-1.5731-0.8127-3.0552-2.3844-3.3105-1.5718-0.2553-3.0528 0.813-3.3079 2.3865-0.255 1.573 0.8124 3.055 2.3842 3.31s3.0527-0.813 3.3081-2.386z" fill="#fff"/>
<path d="m314.82 221.11-236.42-3.41c-1.7269-0.025-3.3747-0.729-4.5871-1.96s-1.8921-2.89-1.8921-4.619v-23.68c0-0.795 0.1577-1.583 0.4638-2.316 0.3061-0.734 0.7547-1.4 1.3197-1.959s1.2352-1 1.9718-1.298 1.525-0.447 2.3194-0.438l236.97 2.697c1.308 0.015 2.557 0.545 3.476 1.475 0.919 0.931 1.435 2.186 1.435 3.495v27.021c0 0.662-0.132 1.317-0.387 1.927-0.255 0.611-0.629 1.164-1.1 1.629-0.471 0.464-1.03 0.831-1.643 1.077-0.614 0.247-1.27 0.369-1.931 0.359z" fill="#fff" opacity=".42"/>
<path d="m229.7 178.47-151.13-2.176c-1.7736-0.026-3.4658-0.749-4.711-2.013-1.2451-1.264-1.9432-2.968-1.9432-4.743v-46.822c0-0.629 0.1238-1.252 0.3642-1.833s0.5928-1.108 1.037-1.553c0.4443-0.445 0.9717-0.797 1.5521-1.038 0.5804-0.24 1.2025-0.364 1.8308-0.364h151.99c1.457 0 2.854 0.579 3.884 1.61s1.609 2.429 1.609 3.887v50.618c0 0.587-0.116 1.168-0.343 1.709-0.226 0.541-0.558 1.032-0.975 1.444-0.418 0.412-0.913 0.736-1.457 0.955s-1.126 0.327-1.712 0.319z" fill="#fff" opacity=".42"/>
<path d="m314.88 178.53h-71.999c-0.605 0-1.204-0.119-1.762-0.351-0.559-0.231-1.067-0.571-1.494-0.999-0.428-0.427-0.767-0.935-0.998-1.494-0.232-0.56-0.351-1.159-0.351-1.764v-50.258c0-1.522 0.605-2.982 1.68-4.059 1.076-1.076 2.535-1.681 4.056-1.681h72.399c0.454 0 0.904 0.089 1.324 0.263s0.801 0.429 1.123 0.751c0.321 0.322 0.576 0.703 0.75 1.124 0.174 0.42 0.263 0.87 0.263 1.325v52.148c0 1.325-0.526 2.595-1.462 3.532s-2.205 1.463-3.529 1.463z" fill="#fff" opacity=".42"/>
<path d="m25.251 290.76c0.0032 0.925 0.3717 1.81 1.0252 2.464 0.6534 0.653 1.5387 1.021 2.4624 1.023h188.59c0.923-2e-3 1.809-0.37 2.462-1.023 0.653-0.654 1.022-1.539 1.025-2.464l1.569-108.46c0-1.918-2.257-5.662-6.395-5.381l-184.31-4.772c-1.1903-0.032-2.3746 0.179-3.481 0.62-1.1063 0.44-2.1117 1.101-2.955 1.943-0.8434 0.841-1.5071 1.845-1.9509 2.951-0.4439 1.105-0.6585 2.29-0.631 3.481l2.5899 109.62z" fill="url(#f)"/>
<path d="m28.694 287.41c0.0026 0.875 0.3511 1.713 0.9693 2.332s1.4559 0.968 2.3302 0.97h180.79c0.875-2e-3 1.712-0.351 2.331-0.97 0.618-0.619 0.966-1.457 0.969-2.332l1.481-98.464c-0.175-5.925-5.365-8.055-8.512-7.929l-176.65-4.743c-0.8368-0.022-1.6693 0.126-2.4469 0.436-0.7777 0.31-1.4843 0.775-2.077 1.367-0.5926 0.591-1.059 1.297-1.3706 2.075-0.3117 0.777-0.4622 1.61-0.4423 2.448l2.627 104.81z" fill="#F39C12"/>
<path d="m231.62 303.25h-221c-0.1777 0-0.3481-0.071-0.4737-0.197-0.1256-0.125-0.19622-0.296-0.19622-0.474v-8.189c0-0.178 0.07062-0.348 0.19622-0.474s0.296-0.196 0.4737-0.196h221c0.178 0 0.348 0.07 0.474 0.196 0.125 0.126 0.196 0.296 0.196 0.474v8.189c0 0.178-0.071 0.349-0.196 0.474-0.126 0.126-0.296 0.197-0.474 0.197z" fill="url(#e)"/>
<path d="m217.42 198.88 0.148-9.865c-0.174-5.926-5.365-8.087-8.512-7.961l-176.65-4.759c-0.8361-0.024-1.6683 0.123-2.4459 0.431-0.7776 0.309-1.4844 0.772-2.0772 1.363-0.5942 0.603-1.0609 1.32-1.3725 2.107s-0.4617 1.63-0.4413 2.476l0.4049 16.208h190.94z" fill="#D98B10"/>
<path d="m214.13 240.64h-7e-3c-0.064-1e-3 -0.126-0.015-0.185-0.04-0.058-0.025-0.111-0.062-0.155-0.107-0.044-0.046-0.079-0.1-0.102-0.159-0.024-0.059-0.035-0.122-0.034-0.186l0.117-7.985c1e-3 -0.127 0.053-0.248 0.144-0.337 0.09-0.089 0.212-0.14 0.339-0.14h5e-3c0.063 1e-3 0.126 0.014 0.185 0.039 0.058 0.025 0.111 0.062 0.156 0.107 0.044 0.046 0.079 0.1 0.103 0.159 0.024 0.06 0.035 0.123 0.034 0.187l-0.117 7.985c-2e-3 0.127-0.053 0.248-0.144 0.337-0.09 0.09-0.212 0.14-0.339 0.14z" fill="#fff"/>
<path d="m214.42 221.07h-7e-3c-0.064-1e-3 -0.127-0.015-0.185-0.04s-0.111-0.062-0.155-0.107c-0.045-0.046-0.079-0.1-0.103-0.159-0.023-0.059-0.035-0.122-0.034-0.186l0.449-30.583c-9e-3 -1.817-0.56-3.267-1.638-4.302-2.013-1.93-5.209-1.831-5.344-1.825l-56.46-1.515c-0.063-2e-3 -0.126-0.016-0.184-0.042s-0.11-0.063-0.154-0.109c-0.043-0.046-0.078-0.1-0.1-0.16-0.023-0.059-0.034-0.122-0.032-0.186-1e-3 -0.064 0.011-0.128 0.036-0.187 0.025-0.06 0.062-0.113 0.109-0.157 0.046-0.045 0.102-0.079 0.162-0.1 0.061-0.022 0.125-0.031 0.189-0.026l56.427 1.515c0.351-0.021 3.754-0.08 6.02 2.094 1.275 1.222 1.926 2.906 1.936 5.005l-0.449 30.593c-2e-3 0.127-0.054 0.248-0.144 0.337s-0.212 0.14-0.339 0.14z" fill="#fff"/>
<path d="m137.55 203.69h-99.017c-2.4625 0-4.4588 1.998-4.4588 4.462v36.428c0 2.464 1.9963 4.462 4.4588 4.462h99.017c2.462 0 4.459-1.998 4.459-4.462v-36.428c0-2.464-1.997-4.462-4.459-4.462z" fill="#fff" opacity=".42"/>
<path d="m150.84 203.69h58.152c0.847 0 1.66 0.337 2.259 0.937 0.599 0.599 0.936 1.412 0.936 2.26v38.958c0 0.848-0.337 1.661-0.936 2.261-0.599 0.599-1.412 0.936-2.259 0.936h-58.152c-0.847 0-1.66-0.337-2.259-0.936-0.599-0.6-0.935-1.413-0.935-2.261v-38.958c0-0.848 0.336-1.661 0.935-2.26 0.599-0.6 1.412-0.937 2.259-0.937z" fill="#fff" opacity=".42"/>
<path d="m38.004 255.64h170.25c1.042 0 2.04 0.414 2.777 1.151 0.736 0.736 1.15 1.736 1.15 2.778v22.925c0 0.516-0.102 1.027-0.299 1.504s-0.487 0.91-0.851 1.275c-0.365 0.365-0.798 0.654-1.274 0.852-0.476 0.197-0.987 0.299-1.503 0.299h-170.25c-1.0413 0-2.04-0.414-2.7764-1.151-0.7363-0.737-1.15-1.736-1.15-2.779v-22.925c0-1.042 0.4137-2.042 1.15-2.778 0.7364-0.737 1.7351-1.151 2.7764-1.151z" fill="#fff" opacity=".42"/>
<path d="m37.71 187.63c0.2007-1.237-0.6392-2.403-1.8759-2.604s-2.4019 0.639-2.6026 1.877c-0.2006 1.238 0.6392 2.404 1.8759 2.605s2.4019-0.64 2.6026-1.878z" fill="#fff"/>
<path d="m44.636 189.09c0.8859-0.887 0.8859-2.324 0-3.211-0.8859-0.886-2.3223-0.886-3.2082 0-0.8859 0.887-0.8859 2.324 0 3.211 0.8859 0.886 2.3223 0.886 3.2082 0z" fill="#fff"/>
<path d="m51.694 189.51c0.886-0.886 0.886-2.324 1e-4 -3.21-0.886-0.887-2.3223-0.887-3.2082 0-0.8859 0.886-0.8859 2.324 0 3.21 0.8859 0.887 2.3222 0.887 3.2081 0z" fill="#fff"/>
<path d="m201.13 156.12c17.195 0 31.134-14.129 31.134-31.558 0-17.428-13.939-31.557-31.134-31.557s-31.134 14.129-31.134 31.557c0 17.429 13.939 31.558 31.134 31.558z" fill="#fff"/>
<path d="m200.04 141.56c-0.667-2e-3 -1.323-0.177-1.902-0.51-0.579-0.332-1.062-0.809-1.401-1.385l-11.713-19.762c-0.527-0.887-0.684-1.947-0.437-2.95s0.877-1.868 1.756-2.41c0.434-0.264 0.916-0.438 1.418-0.514 0.502-0.075 1.014-0.05 1.506 0.074 0.492 0.125 0.955 0.346 1.361 0.651s0.747 0.688 1.003 1.126l8.131 13.718 10.749-21.399c0.225-0.455 0.539-0.861 0.922-1.194 0.384-0.333 0.83-0.587 1.312-0.746s0.992-0.22 1.498-0.18c0.506 0.039 0.999 0.179 1.451 0.411 0.914 0.479 1.604 1.298 1.919 2.281 0.316 0.983 0.232 2.051-0.233 2.973l-13.905 27.682c-0.308 0.619-0.777 1.143-1.357 1.518-0.581 0.375-1.252 0.587-1.942 0.613-0.045 2e-3 -0.09 3e-3 -0.136 3e-3z" fill="#F39C12"/>
<path d="m70.788 269.54c17.195 0 31.134-14.129 31.134-31.557 0-17.429-13.94-31.558-31.134-31.558s-31.134 14.129-31.134 31.558c0 17.428 13.939 31.557 31.134 31.557z" fill="#fff"/>
<path d="m69.69 254.98c-0.6675-2e-3 -1.3232-0.177-1.9024-0.509s-1.0619-0.81-1.4007-1.386l-11.713-19.761c-0.5271-0.888-0.6842-1.948-0.4375-2.951 0.2468-1.003 0.8777-1.868 1.7566-2.41 0.4338-0.263 0.9157-0.438 1.4177-0.514 0.502-0.075 1.0139-0.05 1.5061 0.074 0.4921 0.125 0.9547 0.346 1.3606 0.651s0.7471 0.688 1.0037 1.126l8.1309 13.718 10.749-21.399c0.2254-0.455 0.5389-0.861 0.9225-1.194s0.8295-0.586 1.3118-0.746c0.4823-0.159 0.9914-0.22 1.4976-0.18 0.5063 0.039 0.9996 0.179 1.4513 0.411 0.9142 0.479 1.6036 1.298 1.9191 2.281s0.2318 2.051-0.233 2.973l-13.905 27.682c-0.3084 0.619-0.7774 1.143-1.3579 1.518-0.5806 0.375-1.2513 0.587-1.9418 0.614-0.0451 1e-3 -0.0903 2e-3 -0.1355 2e-3z" fill="#F39C12"/>
<path d="m41.634 77.292c4.0149-7.8052 11.483-13.308 20.157-14.291l0.5933-37.582c0.0013-0.0763-0.0127-0.1521-0.0412-0.2229-0.0284-0.0708-0.0707-0.1352-0.1244-0.1895-0.0537-0.0542-0.1176-0.0971-0.1881-0.1262-0.0705-0.0292-0.1461-0.0439-0.2224-0.0433-24.466 0.2652-46.054 15.504-56.129 38.077-0.03448 0.0781-0.05272 0.1623-0.05358 0.2476-8.7e-4 0.0854 0.01565 0.17 0.04854 0.2487s0.08147 0.1499 0.14276 0.2092c0.0613 0.0593 0.13402 0.1055 0.21374 0.1358l35.603 13.537z" fill="#FFB033" fill-opacity=".8"/>
<path d="m89.978 95.297c-0.2441-0.0069-0.4839 0.0662-0.6827 0.2081-0.1989 0.1419-0.346 0.345-0.419 0.5783-0.4201 1.3437-1.1879 3.9222-1.3137 4.2482-0.6076 1.588-1.332 3.13-2.1672 4.611-1.5563 2.742-3.5465 5.255-6.0019 7.245-6.2232 5.044-15.169 5.981-22.631 3.485-0.2127-0.071-0.4235-0.148-0.6336-0.227-0.1879-0.07-0.3949-0.07-0.583-1e-3 -0.1882 0.07-0.3449 0.206-0.4415 0.382l-18.815 34.34c9.1364 4.585 17.734 5.784 28.521 5.092 31.34-2.01 55.95-27.477 58.681-59.057l-33.513-0.9042z" fill="#BF7B0E"/>
<path d="m89.978 95.298c-2.0399 12.532-11.294 22.324-23.869 22.75-3.5378 0.121-7.7587-0.702-10.862-1.96-0.1572-0.062-0.3317-0.066-0.4914-0.01-0.1597 0.055-0.2941 0.167-0.3785 0.314l-19.34 33.296c9.3539 4.705 19.794 6.824 30.24 6.137 31.34-2.01 55.95-28.249 58.68-59.83l-33.98-0.6972z" fill="#FFB033" fill-opacity=".8"/>
<path d="m31.006 144.43 18.726-33.613c0.064-0.116 0.0858-0.25 0.0617-0.379-0.024-0.13-0.0926-0.247-0.1937-0.332-5.765-4.858-10.374-11.373-10.374-19.82 0-2.0835-0.9231-5.116-0.5002-7.0709l-35.216-12.602c-2.0018 6.5305-3.0164 13.324-3.0102 20.155 0 22.688 12.045 42.641 28.584 54.111 0.153 0.106 0.3263 0.178 0.5089 0.213s0.3704 0.031 0.5515-0.011c0.181-0.042 0.3512-0.122 0.4996-0.234 0.1485-0.112 0.2719-0.254 0.3624-0.416z" fill="#BF7B0E"/>
<path d="m29.134 143.48 19.406-33.197c0.1198-0.204 0.1649-0.444 0.1275-0.678-0.0374-0.233-0.1549-0.447-0.3325-0.604-5.5666-4.9-9.1082-12.265-9.1082-20.575-5e-4 -2.0405 0.2166-4.0752 0.6478-6.0695l-35.836-13.406c-0.06762-0.0254-0.13972-0.0366-0.21184-0.033-0.07213 0.0037-0.14274 0.0221-0.20748 0.0541-0.06473 0.0321-0.12221 0.077-0.16888 0.1322-0.04666 0.0552-0.08151 0.1193-0.1024 0.1885-1.8938 6.366-2.8528 12.974-2.8471 19.616 0 23.239 11.473 43.25 28.634 54.572z" fill="#FFB033" fill-opacity=".8"/>
<path d="m68.656 63.179c11.108 1.8593 19.721 11.22 21.18 22.917 0.0366 0.3026 0.18 0.5823 0.4044 0.7885 0.2243 0.2063 0.5149 0.3255 0.8193 0.3364l53.724 1.8018c0.167-0.1619 0.255-0.2473 0.422-0.4093-0.164-44.978-32.391-83.512-75.558-88.613l-0.9921 63.179z" fill="#F39C12"/>
<path d="m96.22 324.12c0.0481-0.019 25.873-45.28 29.362-49.539 0.289-0.352 0.661-0.626 1.084-0.796 0.422-0.169 0.88-0.23 1.332-0.176l7.208 0.86 8.468 18.334-14.108-8.223c1.396 9.662-16.727 24.021-22.942 29.261-0.15 0.125-0.272 0.28-0.359 0.455s-0.137 0.366-0.148 0.561c-0.01 0.195 0.019 0.39 0.087 0.573s0.172 0.35 0.307 0.492l2.481 2.599c-4.073 4.133-8.774 6.786-14.08 8.014l1.3079-2.415z" fill="url(#d)"/>
<path d="m107.56 317.12s1.583 0.512 2.12 1.924c0.256 0.675-0.02 1.44-0.607 1.861-2.608 1.87-11.21 7.906-15.179 9.088-0.0748 0.022-0.1539 0.023-0.2295 5e-3s-0.1452-0.056-0.2018-0.11c-0.0566-0.053-0.0984-0.12-0.1213-0.195-0.0229-0.074-0.026-0.153-0.0091-0.229 0.2037-0.923 0.8626-2.766 2.9853-5.464l-0.1904 0.386c-0.0528 0.106-0.0703 0.225-0.05 0.342 0.0203 0.116 0.0773 0.223 0.1628 0.304 0.0854 0.082 0.1947 0.134 0.3118 0.149 0.1171 0.014 0.2359-9e-3 0.3388-0.067 2.6549-1.5 8.0626-4.783 10.67-7.994z" fill="url(#c)"/>
<path d="m106.28 335.23c0.043-0.028 3.918-9.37 3.961-9.398 3.552-21.646 12.22-40.184 14.776-45.062 0.211-0.404 0.521-0.747 0.9-0.999s0.815-0.404 1.269-0.442l7.232-0.618 12.001 16.239-15.479-5.195c3.321 9.18-11.523 26.912-16.55 33.302-0.121 0.153-0.209 0.33-0.259 0.519-0.05 0.188-0.061 0.385-0.032 0.579 0.029 0.193 0.097 0.378 0.201 0.543 0.103 0.166 0.239 0.309 0.4 0.42l2.956 2.043c-3.154 4.872-7.221 8.423-12.169 10.699l0.793-2.63z" fill="url(#b)"/>
<path d="m115.97 326.07s1.655 0.18 2.465 1.454c0.388 0.609 0.272 1.415-0.218 1.946-2.175 2.359-9.378 10.012-13.026 11.974-0.069 0.036-0.147 0.054-0.224 0.051-0.078-2e-3 -0.154-0.025-0.22-0.066s-0.121-0.098-0.158-0.167c-0.038-0.068-0.057-0.145-0.056-0.222 0.013-0.945 0.286-2.884 1.819-5.956l-0.108 0.416c-0.031 0.115-0.024 0.236 0.02 0.345 0.043 0.11 0.121 0.203 0.221 0.266 0.1 0.062 0.217 0.091 0.335 0.082 0.118-0.01 0.229-0.056 0.319-0.134 2.296-2.006 6.928-6.317 8.831-9.989z" fill="url(#a)"/>
<path d="m168.27 275.29s6.543 9.739 7.08 14.182-1.809 5.979-8.658 6.546c-20.379 1.686-30.426-4.427-30.426-4.427-1.394-8.895-2.386-11.159-14.029-15.995 0 0 14.727 1.17 17.691 0.019 2.963-1.151 28.342-0.325 28.342-0.325z" fill="url(#t)"/>
<path d="m142.18 220.72s4.557-5.396 9.402 1.224c0.877 1.199 4.247 0.21 5.483 2.72 0.299 0.631 0.798 1.146 1.419 1.466 0.62 0.32 1.329 0.427 2.016 0.304 3.536-0.653 9.314-0.708 12.167 4.837 2.178 4.232 0.497 6.709-1.68 8.121-1.599 1.037-2.17 3.142-1.203 4.785 0.927 1.576 1.102 3.71-1.293 6.279-5.366 5.756-15.988-3.653-15.988-3.653l-8.434-19.945-1.889-6.138z" fill="url(#s)"/>
<path d="m150.58 274s-7.62-7.261-11.37-12.07c-0.998-1.283-1.675-2.785-1.976-4.383-0.3-1.597-0.215-3.243 0.249-4.801 1.713-5.773 4.756-11.753 5.033-12.684 0.426-1.426 8.969-1.367 8.969-1.367s16.812 10.919 23.417 29.416l-7.418 2.312s-4.39-7.37-8.727-12.056c0 0 7.505 9.922 7.769 13.983l-15.946 1.65z" fill="url(#r)"/>
<path d="m136.06 276.86 5.725-6.234 6.612 1.782s7.708 1.195 12.12 0l4.412-1.195 9.97-3.107 1.566 4.429c0.193 0.547 0.202 1.142 0.026 1.695-0.175 0.553-0.526 1.033-1 1.369-0.862 0.613-1.873 1.287-2.518 1.569-1.313 0.575-30.245 0.182-30.245 0.182l-6.668-0.49z" fill="url(#q)"/>
<path d="m145.61 228.41 5.742 10.686c-0.379 2.332-6.25 2.398-7.157 1.005-0.088-0.145-0.149-0.304-0.18-0.471l-3.435-7.14c-0.147-0.696 1.76-3.042 2.388-3.377l2.282-1.215c0.879-0.469-2.788-0.505 0.36 0.512z" fill="url(#p)"/>
<path d="m133.99 225.9s-0.649 3.61 2.187 8.2c2.835 4.591 5.658 4.383 7.093 2.746 1.434-1.637 3.153-4.363 2.371-8.941s-10.672-6.609-11.651-2.005z" fill="url(#o)"/>
<path d="m142.21 228.41s-4.591-6.035-8.116-0.774l0.06 1.818s-4.584-0.215-4.087-4.443 4.239-7.116 9.427-5.672c5.188 1.445 8.219 3.09 8.805 6.695 0.586 3.604-2.355 3.015-2.355 3.015s-1.124-2.487-2.48-2.657c-1.357-0.17-0.867 1.798-0.867 1.798l-0.387 0.22z" fill="url(#n)"/>
<path d="m143.26 228.25s-2.378-3.088-0.214-3.729c2.165-0.641 2.084 3.026 1.943 4.39l-1.729-0.661z" fill="url(#m)"/>
<path d="m155.01 279.33c-0.02 1e-3 -0.041 2e-3 -0.061 1e-3l-26.333-0.028c-0.155 0-0.308-0.031-0.451-0.09-0.144-0.06-0.273-0.147-0.383-0.256-0.109-0.11-0.196-0.24-0.255-0.383-0.059-0.144-0.09-0.297-0.09-0.452 1e-3 -0.155 0.031-0.309 0.091-0.452 0.059-0.143 0.146-0.273 0.256-0.382 0.11-0.11 0.24-0.196 0.383-0.255s0.297-0.09 0.451-0.089l26.334 0.028c0.307 1e-3 0.602 0.121 0.822 0.336s0.347 0.507 0.355 0.815c7e-3 0.307-0.105 0.606-0.314 0.831-0.21 0.226-0.498 0.361-0.805 0.376z" fill="url(#l)"/>
<path d="m104.95 255.4h21.93c0.793 0 1.569 0.226 2.238 0.65 0.67 0.425 1.205 1.032 1.543 1.749l10.138 21.515h-27.254c-0.509 0-1.007-0.153-1.428-0.44s-0.747-0.694-0.934-1.168l-7.862-19.909c-0.105-0.266-0.143-0.553-0.112-0.837s0.132-0.556 0.292-0.793c0.161-0.236 0.377-0.43 0.629-0.563 0.253-0.134 0.534-0.204 0.82-0.204z" fill="url(#k)"/>
<path d="m120.4 266.43c0.475 1.477 0.124 2.912-0.784 3.205-0.909 0.293-2.03-0.668-2.506-2.146-0.475-1.477-0.124-2.913 0.785-3.205 0.908-0.293 2.03 0.668 2.505 2.146z" fill="#F39C12"/>
<path d="m296.3 125.83c0.353-1.505-1.762-2.505-3.057-1.454-13.151 10.673-44.748 42.631-36.873 98.481 9.88 70.073-7.011 95.642-28.036 111.24 0 0 28.874-7.334 47.04-33.279 44.603-63.701 14.646-148.23 20.926-174.99z" fill="#0078CE"/>
<path d="m286.3 147.72c-1.645 7.8-3.111 15.625-4.244 23.485-1.181 7.853-2.082 15.729-2.705 23.627-0.584 7.895-0.996 15.799-1.02 23.705-0.064 7.907 0.264 15.806 0.626 23.737 0.311 7.928 0.675 15.912 0.095 23.954-0.57 8.025-2.258 16.12-5.607 23.709-0.837 1.891-1.718 3.776-2.718 5.598-0.962 1.839-2.018 3.641-3.111 5.426-2.229 3.604-4.722 7.036-7.459 10.27-5.557 6.522-12.259 12.307-19.642 17.203-0.777 0.515-1.891 0.389-2.487-0.283-0.586-0.659-0.455-1.599 0.286-2.12l5e-3 -4e-3c1.757-1.235 3.495-2.486 5.163-3.799 0.846-0.645 1.657-1.322 2.483-1.984 0.795-0.689 1.622-1.352 2.392-2.062 3.106-2.758 6.005-5.74 8.675-8.922 5.3-6.271 9.543-13.259 12.757-20.504 1.555-3.612 2.799-7.35 3.719-11.173 0.893-3.806 1.493-7.675 1.794-11.573 0.632-7.805 0.347-15.711 0.102-23.64-0.233-7.931-0.403-15.903-0.194-23.868 0.092-3.982 0.267-7.961 0.524-11.938 0.116-1.988 0.276-3.975 0.431-5.961 0.178-1.984 0.371-3.968 0.578-5.95 0.853-7.926 1.989-15.821 3.407-23.685 1.464-7.852 3.168-15.668 5.218-23.414 0.04-0.113 0.12-0.207 0.226-0.265 0.105-0.057 0.228-0.073 0.344-0.044 0.056 7e-3 0.109 0.024 0.157 0.052s0.09 0.065 0.124 0.109 0.058 0.095 0.072 0.149c0.014 0.053 0.017 0.109 9e-3 0.165z" fill="#005A9B"/>
<path d="m261.73 316.03c1.739 1.845 4.796 1.315 5.841-0.996 5.77-12.748 18.827-50.268-2.737-93.494-18.21-36.502-24.618-58.026-26.85-68-0.472-2.109-3.36-2.389-4.232-0.411-9.617 21.815-35.01 96.018 27.978 162.9z" fill="#0069B4"/>
<path d="m264.89 314.68c0.144 0.026 0.291 0.02 0.432-0.019 0.141-0.038 0.272-0.106 0.383-0.201 0.112-0.095 0.201-0.213 0.261-0.346s0.091-0.278 0.089-0.424c-0.01-0.62-1.215-62.584-24.244-114.48-0.053-0.118-0.128-0.226-0.222-0.315-0.095-0.09-0.206-0.16-0.327-0.207s-0.25-0.069-0.38-0.066c-0.13 4e-3 -0.258 0.032-0.377 0.085s-0.226 0.129-0.316 0.223c-0.089 0.094-0.159 0.205-0.206 0.327-0.047 0.121-0.069 0.25-0.066 0.38 4e-3 0.13 0.032 0.259 0.085 0.377 22.861 51.521 24.064 113.09 24.074 113.71 3e-3 0.229 0.087 0.45 0.235 0.626 0.148 0.175 0.353 0.293 0.579 0.333z" fill="#005A9B"/>
<path d="m184.93 222.3c-0.403 19-1.707 84.542-1.085 107.77 0.066 2.461 1.751 4.436 3.853 4.516 10.394 0.399 48.499 1.408 65.501 0.573 3.541-0.174 6.357-3.532 6.431-7.681 0.353-19.944 1.132-76.038-0.72-101.74-0.222-3.079-2.286-5.531-4.912-5.838-11.32-1.326-49.589-4.567-64.278-3.451-2.649 0.201-4.724 2.742-4.79 5.849z" fill="url(#i)"/>
<path d="m189.56 228.13c-0.559 15.337-2.324 66.358-1.764 85.224 0.082 2.758 1.938 4.987 4.291 5.149 9.687 0.663 42.737 2.127 56.945 0.795 2.559-0.24 4.566-2.663 4.704-5.663 0.72-15.647 2.788-63.154 2.251-81.809-0.086-2.976-2.055-5.407-4.588-5.673-10.48-1.102-45.599-3.723-57.673-2.952-2.266 0.145-4.069 2.274-4.166 4.929z" fill="#F39C12"/>
<path d="m217 220.13c0 0.583 0.388 1.064 0.885 1.094 2.455 0.151 9.371 0.577 12.462 0.787 0.61 0.041 1.088-0.6 0.973-1.302l-0.02-0.12c-0.079-0.479-0.418-0.839-0.833-0.883-2.089-0.225-8.394-0.846-12.571-0.671-0.501 0.021-0.896 0.507-0.896 1.095z" fill="#fff" opacity=".5"/>
<path d="m256.08 237.63c-8e-3 -2.062-0.036-4.088-0.084-5.785-0.086-2.976-2.055-5.416-4.588-5.682-10.48-1.102-45.599-3.728-57.673-2.957-2.266 0.145-4.069 2.291-4.166 4.946-0.087 2.379-0.149 4.254-0.281 7.964l66.792 1.514z" fill="#D98B10"/>
<path d="m222.2 270.32h-27.315c-1.614 0-2.923-1.349-2.923-3.013v-24.003c0-1.52 1.215-2.743 2.69-2.707l27.567 0.679c1.517 0.038 2.727 1.315 2.727 2.878v23.335c0 1.564-1.23 2.831-2.746 2.831z" fill="#fff" opacity=".42"/>
<path d="m228.2 241.34h23.66c0.222 0 0.435 0.089 0.592 0.246s0.245 0.369 0.245 0.591v27.247c0 0.117-0.023 0.233-0.068 0.341-0.045 0.109-0.111 0.207-0.194 0.29s-0.181 0.149-0.289 0.194c-0.109 0.045-0.225 0.068-0.342 0.068h-23.37c-0.282 0-0.553-0.112-0.753-0.312s-0.312-0.471-0.312-0.754v-27.079c0-0.22 0.088-0.432 0.244-0.588s0.367-0.244 0.587-0.244z" fill="#fff" opacity=".42"/>
<path d="m191.76 274.12h60.04c0.238 0 0.466 0.095 0.634 0.263s0.262 0.396 0.262 0.634v17.966c0 0.228-0.09 0.446-0.251 0.607s-0.379 0.252-0.606 0.252h-59.899c-0.252 0-0.494-0.101-0.672-0.279s-0.278-0.42-0.278-0.671v-18.001c0-0.204 0.081-0.4 0.226-0.545 0.144-0.144 0.34-0.226 0.544-0.226z" fill="#fff" opacity=".42"/>
<path d="m246.3 316.1-52.524-0.733c-1.557-0.022-2.806-1.158-2.806-2.553v-12.725c0-1.227 1.111-2.222 2.482-2.222h55.255c1.311 0 2.374 0.95 2.378 2.123l0.035 11.849c7e-3 2.378-2.165 4.298-4.82 4.261z" fill="#fff" opacity=".42"/>
<path d="m195.75 233.09c0.946-0.392 1.395-1.478 1.003-2.424-0.392-0.947-1.476-1.396-2.422-1.004s-1.395 1.477-1.003 2.424c0.392 0.946 1.476 1.396 2.422 1.004z" fill="#fff" opacity=".74"/>
<path d="m202.53 232.87c0.724-0.725 0.724-1.9 0-2.624-0.724-0.725-1.897-0.725-2.621 0-0.724 0.724-0.724 1.899 0 2.624 0.724 0.724 1.897 0.724 2.621 0z" fill="#fff" opacity=".74"/>
<path d="m207.69 233.61c0.946-0.392 1.395-1.477 1.003-2.424-0.391-0.946-1.476-1.396-2.422-1.004s-1.395 1.478-1.003 2.424c0.392 0.947 1.476 1.396 2.422 1.004z" fill="#fff" opacity=".74"/>
<path d="m224.56 291.2c13.305 0 24.092-10.933 24.092-24.42 0-13.486-10.787-24.419-24.092-24.419-13.306 0-24.092 10.933-24.092 24.419 0 13.487 10.786 24.42 24.092 24.42z" fill="#fff"/>
<path d="m223.71 279.94c-0.516-1e-3 -1.023-0.137-1.472-0.394-0.448-0.257-0.821-0.626-1.084-1.072l-9.063-15.291c-0.408-0.688-0.53-1.508-0.339-2.284s0.68-1.445 1.36-1.864c0.335-0.204 0.708-0.34 1.097-0.398 0.388-0.059 0.784-0.039 1.165 0.057 0.381 0.097 0.739 0.268 1.053 0.504s0.578 0.532 0.777 0.871l6.291 10.615 8.318-16.558c0.174-0.353 0.417-0.667 0.713-0.925 0.297-0.257 0.642-0.453 1.016-0.576 0.373-0.123 0.767-0.171 1.158-0.14 0.392 0.03 0.774 0.139 1.123 0.318 0.708 0.371 1.241 1.005 1.485 1.765 0.245 0.761 0.18 1.587-0.18 2.301l-10.759 21.42c-0.239 0.479-0.602 0.885-1.051 1.175s-0.968 0.454-1.503 0.475c-0.035 1e-3 -0.07 1e-3 -0.105 1e-3z" fill="#F39C12"/>
</g>
<defs>
<linearGradient id="u" x1="204.85" x2="201.23" y1="311.37" y2="239.77" gradientUnits="userSpaceOnUse">
<stop stop-color="#09005D" offset="0"/>
<stop stop-color="#1A0F91" offset="1"/>
</linearGradient>
<linearGradient id="j" x1="238495" x2="928900" y1="280915" y2="280915" gradientUnits="userSpaceOnUse">
<stop stop-color="#09005D" offset="0"/>
<stop stop-color="#1A0F91" offset="1"/>
</linearGradient>
<linearGradient id="h" x1="207.8" x2="185.93" y1="-4.9677" y2="277.04" gradientUnits="userSpaceOnUse">
<stop stop-color="#53D8FF" offset="0"/>
<stop stop-color="#3840F7" offset="1"/>
</linearGradient>
<linearGradient id="g" x1="234071" x2="233376" y1="41824" y2="53013" gradientUnits="userSpaceOnUse">
<stop stop-color="#09005D" offset="0"/>
<stop stop-color="#1A0F91" offset="1"/>
</linearGradient>
<linearGradient id="f" x1="283887" x2="281810" y1="221072" y2="377637" gradientUnits="userSpaceOnUse">
<stop stop-color="#09005D" offset="0"/>
<stop stop-color="#1A0F91" offset="1"/>
</linearGradient>
<linearGradient id="e" x1="317710" x2="317701" y1="17832" y2="26019" gradientUnits="userSpaceOnUse">
<stop stop-color="#09005D" offset="0"/>
<stop stop-color="#1A0F91" offset="1"/>
</linearGradient>
<linearGradient id="d" x1="-914806" x2="-897401" y1="146757" y2="155907" gradientUnits="userSpaceOnUse">
<stop stop-color="#FEBBBA" offset="0"/>
<stop stop-color="#FF928E" offset="1"/>
</linearGradient>
<linearGradient id="c" x1="-148794" x2="-146728" y1="24772" y2="29575" gradientUnits="userSpaceOnUse">
<stop stop-color="#4F52FF" offset="0"/>
<stop stop-color="#4042E2" offset="1"/>
</linearGradient>
<linearGradient id="b" x1="-766205" x2="-822603" y1="166822" y2="142390" gradientUnits="userSpaceOnUse">
<stop stop-color="#FEBBBA" offset="0"/>
<stop stop-color="#FF928E" offset="1"/>
</linearGradient>
<linearGradient id="a" x1="-136242" x2="-132766" y1="-7263.3" y2="-2072" gradientUnits="userSpaceOnUse">
<stop stop-color="#4F52FF" offset="0"/>
<stop stop-color="#4042E2" offset="1"/>
</linearGradient>
<linearGradient id="t" x1="-565314" x2="-561413" y1="53984" y2="64654" gradientUnits="userSpaceOnUse">
<stop stop-color="#E1473D" offset="0"/>
<stop stop-color="#E9605A" offset="1"/>
</linearGradient>
<linearGradient id="s" x1="-353974" x2="-348859" y1="119492" y2="125124" gradientUnits="userSpaceOnUse">
<stop stop-color="#09005D" offset="0"/>
<stop stop-color="#1A0F91" offset="1"/>
</linearGradient>
<linearGradient id="r" x1="73411" x2="70899" y1="73894" y2="79035" gradientUnits="userSpaceOnUse">
<stop stop-color="#FF928E" offset="0"/>
<stop stop-color="#FE7062" offset="1"/>
</linearGradient>
<linearGradient id="q" x1="-396245" x2="-382362" y1="25147" y2="25147" gradientUnits="userSpaceOnUse">
<stop stop-color="#FEBBBA" offset="0"/>
<stop stop-color="#FF928E" offset="1"/>
</linearGradient>
<linearGradient id="p" x1="-123159" x2="-122999" y1="30051" y2="28406" gradientUnits="userSpaceOnUse">
<stop stop-color="#FEBBBA" offset="0"/>
<stop stop-color="#FF928E" offset="1"/>
</linearGradient>
<linearGradient id="o" x1="-116898" x2="-118588" y1="73459" y2="69354" gradientUnits="userSpaceOnUse">
<stop stop-color="#FEBBBA" offset="0"/>
<stop stop-color="#FF928E" offset="1"/>
</linearGradient>
<linearGradient id="n" x1="-142139" x2="-139943" y1="137988" y2="138798" gradientUnits="userSpaceOnUse">
<stop stop-color="#09005D" offset="0"/>
<stop stop-color="#1A0F91" offset="1"/>
</linearGradient>
<linearGradient id="m" x1="-30302" x2="-30651" y1="15545" y2="14346" gradientUnits="userSpaceOnUse">
<stop stop-color="#FEBBBA" offset="0"/>
<stop stop-color="#FF928E" offset="1"/>
</linearGradient>
<linearGradient id="l" x1="-282015" x2="-282405" y1="19598" y2="21155" gradientUnits="userSpaceOnUse">
<stop stop-color="#09005D" offset="0"/>
<stop stop-color="#1A0F91" offset="1"/>
</linearGradient>
<linearGradient id="k" x1="47611" x2="107548" y1="62931" y2="55002" gradientUnits="userSpaceOnUse">
<stop stop-color="#09005D" offset="0"/>
<stop stop-color="#1A0F91" offset="1"/>
</linearGradient>
<linearGradient id="i" x1="147856" x2="197141" y1="319756" y2="319756" gradientUnits="userSpaceOnUse">
<stop stop-color="#09005D" offset="0"/>
<stop stop-color="#1A0F91" offset="1"/>
</linearGradient>
<clipPath id="v">
<rect transform="translate(.5 .00036621)" width="339" height="342" fill="#fff"/>
</clipPath>
</defs>
</svg>
