<?xml version="1.0" encoding="UTF-8"?>
<svg viewBox="0 0 141 66" xmlns="http://www.w3.org/2000/svg">
<path d="m79.064 10.955-7.6932 21.605h-7.3346l-4.0659-11.759-4.2253 11.759h-7.3345l-7.6933-21.605h7.1751l4.4246 13.075 4.5841-13.075h6.4576l4.4645 13.194 4.5841-13.194h6.6568z" fill="#324552"/>
<path d="m88.88 32.919c-1.8071 0-3.5876-0.1994-5.3415-0.598-1.7539-0.4252-3.1623-0.9699-4.2253-1.6343l2.2721-5.182c0.9833 0.6112 2.1525 1.1028 3.5078 1.4749 1.3553 0.3454 2.6973 0.5182 4.026 0.5182 1.2225 0 2.0861-0.1196 2.591-0.3588 0.5315-0.2657 0.7973-0.6378 0.7973-1.1161s-0.3189-0.8105-0.9567-0.9965c-0.6112-0.2126-1.5945-0.4119-2.9498-0.598-1.7273-0.2126-3.2022-0.4916-4.4246-0.8371-1.1958-0.3454-2.2322-0.9832-3.1092-1.9133s-1.3154-2.2323-1.3154-3.9065c0-1.3818 0.4119-2.6042 1.2357-3.6672 0.8238-1.0896 2.0196-1.94 3.5875-2.5512 1.5945-0.6377 3.4946-0.9566 5.7002-0.9566 1.5679 0 3.1225 0.1594 4.6638 0.4783s2.8302 0.7707 3.8666 1.3553l-2.2721 5.1421c-1.9134-1.0629-3.9862-1.5944-6.2184-1.5944-1.1959 0-2.0728 0.1461-2.6309 0.4384-0.558 0.2658-0.8371 0.6245-0.8371 1.0763 0 0.5049 0.3056 0.8637 0.9168 1.0763 0.6113 0.186 1.6211 0.3853 3.0295 0.5979 1.7805 0.2657 3.2554 0.5713 4.4247 0.9168 1.1692 0.3455 2.1791 0.9833 3.0294 1.9134 0.877 0.9035 1.3155 2.1791 1.3155 3.8267 0 1.3553-0.4119 2.5777-1.2357 3.6673-0.8238 1.0629-2.0463 1.9-3.6673 2.5112-1.5945 0.6112-3.5211 0.9169-5.7799 0.9169z" fill="#324552"/>
<path d="m116.42 10.597c1.966 0 3.747 0.465 5.341 1.3951 1.621 0.9035 2.897 2.2057 3.827 3.9065 0.956 1.6741 1.435 3.6274 1.435 5.8596 0 2.2323-0.479 4.1988-1.435 5.8995-0.93 1.6742-2.206 2.9764-3.827 3.9065-1.594 0.9035-3.375 1.3553-5.341 1.3553-2.525 0-4.531-0.7574-6.02-2.2722v9.6465h-7.573v-29.338h7.215v2.1525c1.408-1.6741 3.534-2.5112 6.378-2.5112zm-1.595 16.303c1.329 0 2.418-0.4518 3.269-1.3553 0.85-0.9301 1.275-2.1924 1.275-3.7869s-0.425-2.8435-1.275-3.747c-0.851-0.9301-1.94-1.3951-3.269-1.3951s-2.418 0.465-3.269 1.3951c-0.85 0.9035-1.275 2.1525-1.275 3.747s0.425 2.8568 1.275 3.7869c0.851 0.9035 1.94 1.3553 3.269 1.3553z" fill="#324552"/>
<path d="m133.62 32.919c-1.275 0-2.352-0.4252-3.229-1.2756s-1.315-1.9267-1.315-3.2288c0-1.3287 0.425-2.405 1.275-3.2288 0.877-0.8238 1.967-1.2357 3.269-1.2357 1.329 0 2.418 0.4119 3.269 1.2357 0.85 0.8238 1.275 1.9001 1.275 3.2288 0 1.3021-0.438 2.3784-1.315 3.2288-0.85 0.8504-1.927 1.2756-3.229 1.2756z" fill="#324552"/>
<rect x="23.693" y="23.485" width="9.0756" height="9.0756" fill="#7C8C98"/>
<rect x="23.693" y="12.056" width="9.0756" height="8.7395" fill="#7C8C98"/>
<rect x="23.693" y=".29138" width="9.0756" height="9.0756" fill="#F39C12"/>
<rect x="12.265" y="23.485" width="8.7395" height="9.0756" fill="#7C8C98"/>
<rect x="12.265" y="12.056" width="8.7395" height="8.7395" fill="#F39C12"/>
<rect x=".5" y="23.485" width="9.0756" height="9.0756" fill="#F39C12"/>
<path d="m21.402 49.051-4.5199 12.219h-2.7532l-3.1662-8.4207-3.2121 8.4207h-2.7532l-4.497-12.219h2.7074l3.235 9.0157 3.3727-9.0157h2.4091l3.3039 9.0614 3.3268-9.0614h2.5467z" fill="#324552"/>
<path d="m30.15 61.43c-1.239 0-2.3556-0.267-3.3498-0.8009s-1.7743-1.2738-2.3403-2.2196c-0.5506-0.961-0.8259-2.0441-0.8259-3.2493 0-1.2051 0.2753-2.2806 0.8259-3.2264 0.566-0.9458 1.3461-1.6857 2.3403-2.2196s2.1108-0.8009 3.3498-0.8009c1.2542 0 2.3785 0.267 3.3727 0.8009s1.7666 1.2738 2.3173 2.2196c0.5659 0.9458 0.8489 2.0213 0.8489 3.2264 0 1.2052-0.283 2.2883-0.8489 3.2493-0.5507 0.9458-1.3231 1.6857-2.3173 2.2196s-2.1185 0.8009-3.3727 0.8009zm0-2.4484c1.0554 0 1.9272-0.3509 2.6155-1.0526s1.0325-1.6247 1.0325-2.7688-0.3442-2.067-1.0325-2.7688c-0.6883-0.7017-1.5601-1.0525-2.6155-1.0525s-1.9273 0.3508-2.6156 1.0525c-0.673 0.7018-1.0095 1.6247-1.0095 2.7688s0.3365 2.0671 1.0095 2.7688c0.6883 0.7017 1.5602 1.0526 2.6156 1.0526z" fill="#324552"/>
<path d="m43.768 50.836c0.826-1.2814 2.2791-1.9221 4.3593-1.9221v2.723c-0.2447-0.0457-0.4665-0.0686-0.6654-0.0686-1.1165 0-1.9884 0.328-2.6155 0.9839-0.6272 0.6407-0.9407 1.5713-0.9407 2.7917v5.9265h-2.868v-12.219h2.7303v1.7848z" fill="#324552"/>
<path d="m57.168 56.03-2.1338 2.0137v3.2264h-2.8679v-16.979h2.8679v10.251l5.9424-5.4918h3.4416l-5.1165 5.1257 5.5983 7.0935h-3.4874l-4.2446-5.2401z" fill="#324552"/>
<path d="m71.763 61.43c-0.9943 0-1.9655-0.1297-2.9139-0.389-0.9483-0.2594-1.7055-0.5873-2.2714-0.984l1.1013-2.1738c0.5506 0.3661 1.2084 0.6636 1.9731 0.8924 0.7801 0.2136 1.5449 0.3204 2.2944 0.3204 1.7131 0 2.5697-0.45 2.5697-1.3501 0-0.4271-0.2218-0.7246-0.6654-0.8924-0.4282-0.1678-1.1242-0.328-2.0878-0.4805-1.0096-0.1526-1.8355-0.328-2.478-0.5263-0.6271-0.1983-1.1777-0.5416-1.6519-1.0297-0.4589-0.5034-0.6883-1.1975-0.6883-2.0823 0-1.1594 0.4818-2.0823 1.4455-2.7688 0.9789-0.7017 2.2943-1.0526 3.9463-1.0526 0.8412 0 1.6825 0.0992 2.5238 0.2975 0.8412 0.1831 1.5295 0.4348 2.0649 0.7551l-1.1013 2.1738c-1.0401-0.6102-2.2103-0.9153-3.5104-0.9153-0.8413 0-1.4837 0.1297-1.9273 0.389-0.4282 0.2441-0.6424 0.5721-0.6424 0.984 0 0.4576 0.2295 0.7856 0.6883 0.9839 0.4742 0.1831 1.2007 0.3585 2.1797 0.5263 0.9789 0.1526 1.7819 0.328 2.4091 0.5263 0.6271 0.1983 1.1624 0.5339 1.606 1.0068 0.4589 0.4729 0.6883 1.1442 0.6883 2.0137 0 1.1441-0.4971 2.0594-1.4913 2.7459-0.9942 0.6864-2.3479 1.0297-4.061 1.0297z" fill="#324552"/>
<path d="m88.183 48.914c1.1931 0 2.2561 0.2594 3.1892 0.778 0.9483 0.5187 1.6902 1.2509 2.2255 2.1967 0.5354 0.9458 0.803 2.0366 0.803 3.2722 0 1.2357-0.2676 2.334-0.803 3.2951-0.5353 0.9458-1.2772 1.678-2.2255 2.1967-0.9331 0.5187-1.9961 0.778-3.1892 0.778-1.6519 0-2.9597-0.5492-3.9233-1.6475v5.9265h-2.868v-16.658h2.7303v1.6018c0.4742-0.5797 1.0554-1.0145 1.7437-1.3043 0.7036-0.2899 1.4761-0.4348 2.3173-0.4348zm-0.3212 10.068c1.0554 0 1.9196-0.3509 2.5926-1.0526 0.6883-0.7017 1.0325-1.6247 1.0325-2.7688s-0.3442-2.067-1.0325-2.7688c-0.673-0.7017-1.5372-1.0525-2.5926-1.0525-0.6883 0-1.3078 0.1601-1.8584 0.4805-0.5507 0.3051-0.9866 0.7475-1.3078 1.3272s-0.4818 1.2509-0.4818 2.0136c0 0.7628 0.1606 1.434 0.4818 2.0137 0.3212 0.5796 0.7571 1.0297 1.3078 1.35 0.5506 0.3051 1.1701 0.4577 1.8584 0.4577z" fill="#324552"/>
<path d="m103.25 48.914c1.805 0 3.181 0.4348 4.13 1.3043 0.963 0.8543 1.445 2.151 1.445 3.89v7.1622h-2.707v-1.4873c-0.352 0.5339-0.857 0.9458-1.514 1.2356-0.643 0.2746-1.423 0.4119-2.341 0.4119-0.917 0-1.72-0.1526-2.4087-0.4577-0.6883-0.3203-1.2237-0.7551-1.6061-1.3043-0.3671-0.5644-0.5506-1.1975-0.5506-1.8992 0-1.0983 0.4053-1.9755 1.216-2.6315 0.826-0.6712 2.1184-1.0068 3.8774-1.0068h3.166v-0.1831c0-0.8542-0.26-1.5102-0.78-1.9678-0.505-0.4577-1.262-0.6865-2.271-0.6865-0.689 0-1.369 0.1068-2.042 0.3203-0.658 0.2136-1.2162 0.5111-1.6751 0.8925l-1.1242-2.0823c0.6424-0.4882 1.4148-0.8619 2.3173-1.1213 0.902-0.2593 1.858-0.389 2.868-0.389zm-0.39 10.434c0.719 0 1.354-0.1602 1.904-0.4805 0.566-0.3356 0.964-0.8086 1.193-1.4187v-1.4188h-2.959c-1.652 0-2.478 0.5416-2.478 1.6247 0 0.5187 0.206 0.9305 0.619 1.2356s0.987 0.4577 1.721 0.4577z" fill="#324552"/>
<path d="m119.84 61.43c-1.269 0-2.409-0.267-3.418-0.8009-1.01-0.5339-1.798-1.2738-2.364-2.2196-0.566-0.961-0.849-2.0441-0.849-3.2493 0-1.2051 0.283-2.2806 0.849-3.2264s1.346-1.6857 2.341-2.2196c1.009-0.5339 2.156-0.8009 3.441-0.8009 1.209 0 2.264 0.2441 3.166 0.7323 0.918 0.4881 1.606 1.1898 2.065 2.1051l-2.202 1.2815c-0.352-0.5645-0.796-0.984-1.331-1.2586-0.52-0.2898-1.094-0.4347-1.721-0.4347-1.07 0-1.958 0.3508-2.661 1.0525-0.704 0.6865-1.056 1.6094-1.056 2.7688s0.345 2.0899 1.033 2.7917c0.703 0.6864 1.598 1.0297 2.684 1.0297 0.627 0 1.201-0.1373 1.721-0.4119 0.535-0.2899 0.979-0.717 1.331-1.2814l2.202 1.2814c-0.474 0.9153-1.17 1.6246-2.088 2.128-0.902 0.4882-1.95 0.7323-3.143 0.7323z" fill="#324552"/>
<path d="m140.5 55.229c0 0.1983-0.015 0.4805-0.046 0.8466h-9.613c0.168 0.9 0.604 1.617 1.308 2.151 0.718 0.5186 1.606 0.778 2.661 0.778 1.346 0 2.455-0.4424 3.327-1.3272l1.537 1.7619c-0.551 0.656-1.247 1.1518-2.088 1.4874s-1.789 0.5034-2.845 0.5034c-1.346 0-2.531-0.267-3.556-0.8009s-1.82-1.2738-2.386-2.2196c-0.551-0.961-0.826-2.0441-0.826-3.2493 0-1.1899 0.267-2.2577 0.803-3.2035 0.55-0.9611 1.308-1.7086 2.271-2.2425 0.964-0.5339 2.05-0.8009 3.258-0.8009 1.193 0 2.256 0.267 3.189 0.8009 0.949 0.5187 1.683 1.2585 2.203 2.2196 0.535 0.9458 0.803 2.0442 0.803 3.2951zm-6.195-4.0273c-0.918 0-1.698 0.2745-2.34 0.8237-0.627 0.5339-1.01 1.2509-1.147 2.151h6.952c-0.123-0.8848-0.497-1.6018-1.125-2.151-0.627-0.5492-1.407-0.8237-2.34-0.8237z" fill="#324552"/>
</svg>
