<?xml version="1.0" encoding="UTF-8"?>
<svg viewBox="0 0 84 24" xmlns="http://www.w3.org/2000/svg">
<path d="m47.138 6.3984-4.616 12.963h-4.4007l-2.4395-7.0556-2.5352 7.0556h-4.4007l-4.616-12.963h4.305l2.6548 7.8447 2.7505-7.8447h3.8745l2.6787 7.9165 2.7505-7.9165h3.9941z" fill="#fff"/>
<path d="m53.028 19.577c-1.0842 0-2.1525-0.1196-3.2049-0.3588-1.0523-0.2551-1.8974-0.5819-2.5352-0.9805l1.3633-3.1093c0.59 0.3668 1.2915 0.6618 2.1047 0.885 0.8132 0.2073 1.6184 0.3109 2.4156 0.3109 0.7335 0 1.2517-0.0718 1.5546-0.2153 0.3189-0.1594 0.4784-0.3826 0.4784-0.6696s-0.1914-0.4863-0.5741-0.598c-0.3667-0.1275-0.9566-0.2471-1.7698-0.3587-1.0364-0.1276-1.9213-0.295-2.6548-0.5023-0.7175-0.2072-1.3393-0.5899-1.8655-1.148-0.5262-0.558-0.7893-1.3393-0.7893-2.3438 0-0.82916 0.2472-1.5626 0.7415-2.2004 0.4942-0.65373 1.2117-1.164 2.1525-1.5307 0.9567-0.38267 2.0967-0.574 3.4201-0.574 0.9407 0 1.8735 0.09566 2.7983 0.287 0.9248 0.19133 1.6981 0.46239 2.3199 0.81318l-1.3632 3.0853c-1.148-0.63781-2.3917-0.9567-3.7311-0.9567-0.7175 0-1.2437 0.08769-1.5785 0.26308-0.3348 0.15945-0.5023 0.37472-0.5023 0.64572 0 0.303 0.1834 0.5182 0.5501 0.6458 0.3668 0.1116 0.9727 0.2312 1.8177 0.3588 1.0683 0.1594 1.9532 0.3428 2.6548 0.55 0.7016 0.2073 1.3075 0.59 1.8177 1.1481 0.5262 0.5421 0.7893 1.3074 0.7893 2.296 0 0.8132-0.2472 1.5466-0.7415 2.2003-0.4943 0.6378-1.2277 1.1401-2.2003 1.5068-0.9567 0.3667-2.1127 0.5501-3.468 0.5501z" fill="#fff"/>
<path d="m69.552 6.1831c1.1799 0 2.2482 0.27903 3.2049 0.83709 0.9726 0.54212 1.738 1.3234 2.296 2.3439 0.574 1.0045 0.861 2.1764 0.861 3.5158 0 1.3393-0.287 2.5192-0.861 3.5397-0.558 1.0045-1.3234 1.7858-2.296 2.3438-0.9567 0.5421-2.025 0.8132-3.2049 0.8132-1.5147 0-2.7185-0.4544-3.6114-1.3633v5.7879h-4.5442v-17.603h4.3289v1.2915c0.8451-1.0045 2.1207-1.5068 3.8267-1.5068zm-0.9566 9.782c0.7972 0 1.4509-0.271 1.9611-0.8131 0.5103-0.5581 0.7654-1.3155 0.7654-2.2721 0-0.9567-0.2551-1.7061-0.7654-2.2482-0.5102-0.5581-1.1639-0.83713-1.9611-0.83713-0.7973 0-1.451 0.27903-1.9612 0.83713-0.5103 0.5421-0.7654 1.2915-0.7654 2.2482 0 0.9566 0.2551 1.714 0.7654 2.2721 0.5102 0.5421 1.1639 0.8131 1.9612 0.8131z" fill="#fff"/>
<path d="m79.869 19.577c-0.7653 0-1.4111-0.2551-1.9373-0.7653-0.5262-0.5103-0.7892-1.156-0.7892-1.9373 0-0.7972 0.2551-1.443 0.7653-1.9373 0.5262-0.4943 1.1799-0.7414 1.9612-0.7414 0.7972 0 1.451 0.2471 1.9612 0.7414s0.7653 1.1401 0.7653 1.9373c0 0.7813-0.2631 1.427-0.7892 1.9373-0.5103 0.5102-1.156 0.7653-1.9373 0.7653z" fill="#fff"/>
<rect x="13.916" y="13.916" width="5.4454" height="5.4454" fill="#fff"/>
<rect x="13.916" y="7.0588" width="5.4454" height="5.2437" fill="#fff"/>
<rect x="13.916" width="5.4454" height="5.4454" fill="#F39C12"/>
<rect x="7.0591" y="13.916" width="5.2437" height="5.4454" fill="#fff"/>
<rect x="7.0591" y="7.0588" width="5.2437" height="5.2437" fill="#F39C12"/>
<rect y="13.916" width="5.4454" height="5.4454" fill="#F39C12"/>
</svg>
