<?xml version="1.0" encoding="UTF-8"?>
<svg viewBox="0 0 141 66" xmlns="http://www.w3.org/2000/svg">
<path d="m79.064 10.954-7.6932 21.605h-7.3346l-4.0659-11.759-4.2253 11.759h-7.3345l-7.6933-21.605h7.1751l4.4246 13.075 4.5841-13.075h6.4576l4.4645 13.194 4.5841-13.194h6.6568z" fill="#fff"/>
<path d="m88.88 32.918c-1.8071 0-3.5876-0.1993-5.3415-0.5979-1.7539-0.4252-3.1623-0.97-4.2253-1.6344l2.2721-5.182c0.9833 0.6113 2.1525 1.1029 3.5078 1.4749 1.3553 0.3455 2.6973 0.5182 4.026 0.5182 1.2225 0 2.0861-0.1196 2.591-0.3587 0.5315-0.2658 0.7973-0.6378 0.7973-1.1162 0-0.4783-0.3189-0.8105-0.9567-0.9965-0.6112-0.2126-1.5945-0.4119-2.9498-0.5979-1.7273-0.2126-3.2022-0.4916-4.4246-0.8371-1.1958-0.3455-2.2322-0.9833-3.1092-1.9134s-1.3154-2.2322-1.3154-3.9064c0-1.3819 0.4119-2.6043 1.2357-3.6673 0.8238-1.0895 2.0196-1.9399 3.5875-2.5511 1.5945-0.6378 3.4946-0.9567 5.7002-0.9567 1.5679 0 3.1225 0.1594 4.6638 0.4783s2.8302 0.7707 3.8666 1.3553l-2.2721 5.1422c-1.9134-1.063-3.9862-1.5945-6.2184-1.5945-1.1959 0-2.0728 0.1462-2.6309 0.4385-0.558 0.2657-0.8371 0.6245-0.8371 1.0763 0 0.5049 0.3056 0.8636 0.9168 1.0762 0.6113 0.186 1.6211 0.3854 3.0295 0.5979 1.7805 0.2658 3.2554 0.5714 4.4247 0.9169 1.1692 0.3454 2.1791 0.9832 3.0294 1.9133 0.877 0.9035 1.3155 2.1791 1.3155 3.8267 0 1.3553-0.4119 2.5777-1.2357 3.6673-0.8238 1.063-2.0463 1.9001-3.6673 2.5113-1.5945 0.6112-3.5211 0.9168-5.7799 0.9168z" fill="#fff"/>
<path d="m116.42 10.596c1.966 0 3.747 0.4651 5.341 1.3952 1.621 0.9035 2.897 2.2056 3.827 3.9064 0.956 1.6742 1.435 3.6274 1.435 5.8596 0 2.2323-0.479 4.1988-1.435 5.8996-0.93 1.6742-2.206 2.9763-3.827 3.9064-1.594 0.9035-3.375 1.3553-5.341 1.3553-2.525 0-4.531-0.7574-6.02-2.2721v9.6465h-7.573v-29.338h7.215v2.1525c1.408-1.6742 3.534-2.5113 6.378-2.5113zm-1.595 16.303c1.329 0 2.418-0.4518 3.269-1.3553 0.85-0.9301 1.275-2.1924 1.275-3.7869 0-1.5944-0.425-2.8434-1.275-3.7469-0.851-0.9301-1.94-1.3952-3.269-1.3952s-2.418 0.4651-3.269 1.3952c-0.85 0.9035-1.275 2.1525-1.275 3.7469 0 1.5945 0.425 2.8568 1.275 3.7869 0.851 0.9035 1.94 1.3553 3.269 1.3553z" fill="#fff"/>
<path d="m133.62 32.918c-1.275 0-2.352-0.4252-3.229-1.2756s-1.315-1.9266-1.315-3.2288c0-1.3287 0.425-2.4049 1.275-3.2288 0.877-0.8238 1.967-1.2357 3.269-1.2357 1.329 0 2.418 0.4119 3.269 1.2357 0.85 0.8239 1.275 1.9001 1.275 3.2288 0 1.3022-0.438 2.3784-1.315 3.2288-0.85 0.8504-1.927 1.2756-3.229 1.2756z" fill="#fff"/>
<rect x="23.693" y="23.484" width="9.0756" height="9.0756" fill="#ACBAC3"/>
<rect x="23.693" y="12.056" width="9.0756" height="8.7395" fill="#ACBAC3"/>
<rect x="23.693" y=".29102" width="9.0756" height="9.0756" fill="#F39C12"/>
<rect x="12.265" y="23.484" width="8.7395" height="9.0756" fill="#ACBAC3"/>
<rect x="12.265" y="12.056" width="8.7395" height="8.7395" fill="#F39C12"/>
<rect x=".5" y="23.484" width="9.0756" height="9.0756" fill="#F39C12"/>
<path d="m21.402 49.051-4.5199 12.219h-2.7532l-3.1662-8.4207-3.2121 8.4207h-2.7532l-4.497-12.219h2.7074l3.235 9.0156 3.3727-9.0156h2.4091l3.3039 9.0614 3.3268-9.0614h2.5467z" fill="#fff"/>
<path d="m30.15 61.43c-1.239 0-2.3556-0.2669-3.3498-0.8009-0.9942-0.5339-1.7743-1.2738-2.3403-2.2196-0.5506-0.961-0.8259-2.0441-0.8259-3.2493 0-1.2051 0.2753-2.2806 0.8259-3.2264 0.566-0.9458 1.3461-1.6856 2.3403-2.2196 0.9942-0.5339 2.1108-0.8008 3.3498-0.8008 1.2542 0 2.3785 0.2669 3.3727 0.8008 0.9942 0.534 1.7666 1.2738 2.3173 2.2196 0.5659 0.9458 0.8489 2.0213 0.8489 3.2264 0 1.2052-0.283 2.2883-0.8489 3.2493-0.5507 0.9458-1.3231 1.6857-2.3173 2.2196-0.9942 0.534-2.1185 0.8009-3.3727 0.8009zm0-2.4484c1.0554 0 1.9272-0.3509 2.6155-1.0526s1.0325-1.6246 1.0325-2.7688c0-1.1441-0.3442-2.067-1.0325-2.7687s-1.5601-1.0526-2.6155-1.0526-1.9273 0.3509-2.6156 1.0526c-0.673 0.7017-1.0095 1.6246-1.0095 2.7687 0 1.1442 0.3365 2.0671 1.0095 2.7688 0.6883 0.7017 1.5602 1.0526 2.6156 1.0526z" fill="#fff"/>
<path d="m43.768 50.835c0.826-1.2814 2.2791-1.9221 4.3593-1.9221v2.723c-0.2447-0.0458-0.4665-0.0687-0.6654-0.0687-1.1165 0-1.9884 0.328-2.6155 0.984-0.6272 0.6407-0.9407 1.5712-0.9407 2.7916v5.9265h-2.868v-12.219h2.7303v1.7848z" fill="#fff"/>
<path d="m57.168 56.03-2.1338 2.0136v3.2264h-2.8679v-16.979h2.8679v10.251l5.9424-5.4917h3.4416l-5.1165 5.1256 5.5983 7.0935h-3.4874l-4.2446-5.24z" fill="#fff"/>
<path d="m71.763 61.43c-0.9943 0-1.9655-0.1296-2.9139-0.389-0.9483-0.2593-1.7055-0.5873-2.2714-0.9839l1.1013-2.1738c0.5506 0.3661 1.2084 0.6635 1.9731 0.8924 0.7801 0.2135 1.5449 0.3203 2.2944 0.3203 1.7131 0 2.5697-0.45 2.5697-1.35 0-0.4272-0.2218-0.7247-0.6654-0.8925-0.4282-0.1678-1.1242-0.3279-2.0878-0.4805-1.0096-0.1525-1.8355-0.328-2.478-0.5263-0.6271-0.1983-1.1777-0.5415-1.6519-1.0297-0.4589-0.5034-0.6883-1.1975-0.6883-2.0823 0-1.1594 0.4818-2.0823 1.4455-2.7688 0.9789-0.7017 2.2943-1.0525 3.9463-1.0525 0.8412 0 1.6825 0.0991 2.5238 0.2974 0.8412 0.1831 1.5295 0.4348 2.0649 0.7551l-1.1013 2.1739c-1.0401-0.6102-2.2103-0.9153-3.5104-0.9153-0.8413 0-1.4837 0.1296-1.9273 0.389-0.4282 0.2441-0.6424 0.572-0.6424 0.9839 0 0.4577 0.2295 0.7856 0.6883 0.984 0.4742 0.183 1.2007 0.3585 2.1797 0.5263 0.9789 0.1525 1.7819 0.3279 2.4091 0.5263 0.6271 0.1983 1.1624 0.5339 1.606 1.0068 0.4589 0.4729 0.6883 1.1441 0.6883 2.0136 0 1.1441-0.4971 2.0594-1.4913 2.7459s-2.3479 1.0297-4.061 1.0297z" fill="#fff"/>
<path d="m88.183 48.913c1.1931 0 2.2561 0.2593 3.1892 0.778 0.9483 0.5186 1.6902 1.2509 2.2255 2.1967 0.5354 0.9458 0.803 2.0365 0.803 3.2721 0 1.2357-0.2676 2.3341-0.803 3.2951-0.5353 0.9458-1.2772 1.6781-2.2255 2.1967-0.9331 0.5187-1.9961 0.778-3.1892 0.778-1.6519 0-2.9597-0.5492-3.9233-1.6475v5.9265h-2.868v-16.658h2.7303v1.6017c0.4742-0.5797 1.0554-1.0144 1.7437-1.3043 0.7036-0.2898 1.4761-0.4347 2.3173-0.4347zm-0.3212 10.068c1.0554 0 1.9196-0.3509 2.5926-1.0526 0.6883-0.7017 1.0325-1.6246 1.0325-2.7688 0-1.1441-0.3442-2.067-1.0325-2.7687-0.673-0.7017-1.5372-1.0526-2.5926-1.0526-0.6883 0-1.3078 0.1602-1.8584 0.4805-0.5507 0.3051-0.9866 0.7475-1.3078 1.3272s-0.4818 1.2509-0.4818 2.0136c0 0.7628 0.1606 1.434 0.4818 2.0137s0.7571 1.0297 1.3078 1.3501c0.5506 0.3051 1.1701 0.4576 1.8584 0.4576z" fill="#fff"/>
<path d="m103.25 48.913c1.805 0 3.181 0.4347 4.13 1.3043 0.963 0.8542 1.445 2.1509 1.445 3.89v7.1621h-2.707v-1.4873c-0.352 0.5339-0.857 0.9458-1.514 1.2356-0.643 0.2746-1.423 0.4119-2.341 0.4119-0.917 0-1.72-0.1525-2.4087-0.4576-0.6883-0.3204-1.2237-0.7551-1.6061-1.3043-0.3671-0.5645-0.5506-1.1975-0.5506-1.8993 0-1.0983 0.4053-1.9755 1.216-2.6314 0.826-0.6713 2.1184-1.0069 3.8774-1.0069h3.166v-0.183c0-0.8543-0.26-1.5103-0.78-1.9679-0.505-0.4577-1.262-0.6865-2.271-0.6865-0.689 0-1.369 0.1068-2.042 0.3204-0.658 0.2135-1.2162 0.511-1.6751 0.8924l-1.1242-2.0823c0.6424-0.4882 1.4148-0.8619 2.3173-1.1212 0.902-0.2594 1.858-0.389 2.868-0.389zm-0.39 10.434c0.719 0 1.354-0.1602 1.904-0.4805 0.566-0.3356 0.964-0.8085 1.193-1.4187v-1.4187h-2.959c-1.652 0-2.478 0.5415-2.478 1.6246 0 0.5187 0.206 0.9306 0.619 1.2357s0.987 0.4576 1.721 0.4576z" fill="#fff"/>
<path d="m119.84 61.43c-1.269 0-2.409-0.2669-3.418-0.8009-1.01-0.5339-1.798-1.2738-2.364-2.2196-0.566-0.961-0.849-2.0441-0.849-3.2493 0-1.2051 0.283-2.2806 0.849-3.2264s1.346-1.6856 2.341-2.2196c1.009-0.5339 2.156-0.8008 3.441-0.8008 1.209 0 2.264 0.244 3.166 0.7322 0.918 0.4882 1.606 1.1899 2.065 2.1052l-2.202 1.2814c-0.352-0.5644-0.796-0.984-1.331-1.2585-0.52-0.2899-1.094-0.4348-1.721-0.4348-1.07 0-1.958 0.3509-2.661 1.0526-0.704 0.6864-1.056 1.6094-1.056 2.7687 0 1.1594 0.345 2.09 1.033 2.7917 0.703 0.6865 1.598 1.0297 2.684 1.0297 0.627 0 1.201-0.1373 1.721-0.4119 0.535-0.2898 0.979-0.717 1.331-1.2814l2.202 1.2814c-0.474 0.9153-1.17 1.6247-2.088 2.1281-0.902 0.4881-1.95 0.7322-3.143 0.7322z" fill="#fff"/>
<path d="m140.5 55.229c0 0.1983-0.015 0.4805-0.046 0.8466h-9.613c0.168 0.9001 0.604 1.6171 1.308 2.151 0.718 0.5187 1.606 0.778 2.661 0.778 1.346 0 2.455-0.4424 3.327-1.3272l1.537 1.762c-0.551 0.6559-1.247 1.1517-2.088 1.4873s-1.789 0.5034-2.845 0.5034c-1.346 0-2.531-0.2669-3.556-0.8009-1.025-0.5339-1.82-1.2738-2.386-2.2196-0.551-0.961-0.826-2.0441-0.826-3.2493 0-1.1898 0.267-2.2577 0.803-3.2035 0.55-0.961 1.308-1.7085 2.271-2.2425 0.964-0.5339 2.05-0.8008 3.258-0.8008 1.193 0 2.256 0.2669 3.189 0.8008 0.949 0.5187 1.683 1.2586 2.203 2.2196 0.535 0.9458 0.803 2.0442 0.803 3.2951zm-6.195-4.0273c-0.918 0-1.698 0.2746-2.34 0.8238-0.627 0.5339-1.01 1.2509-1.147 2.1509h6.952c-0.123-0.8848-0.497-1.6018-1.125-2.1509-0.627-0.5492-1.407-0.8238-2.34-0.8238z" fill="#fff"/>
</svg>
