<?xml version="1.0" encoding="UTF-8"?>
<svg fill="none" viewBox="0 0 40 41" xmlns="http://www.w3.org/2000/svg">
<rect x="1" y="1.2092" width="39" height="39" rx="1.5" fill="#fff"/>
<path d="m29.14 20.914c0-0.6382-0.0573-1.2518-0.1636-1.8409h-8.4764v3.4813h4.8436c-0.2086 1.125-0.8427 2.0782-1.7959 2.7164v2.2582h2.9087c1.7018-1.5668 2.6836-3.8741 2.6836-6.615z" clip-rule="evenodd" fill="#4285F4" fill-rule="evenodd"/>
<path d="m20.5 29.709c2.43 0 4.4672-0.8059 5.9563-2.1805l-2.9086-2.2581c-0.8059 0.54-1.8368 0.859-3.0477 0.859-2.3441 0-4.3282-1.5831-5.036-3.7104h-3.0068v2.3318c1.4809 2.9414 4.5246 4.9582 8.0428 4.9582z" clip-rule="evenodd" fill="#34A853" fill-rule="evenodd"/>
<path d="m15.464 22.419c-0.18-0.54-0.2823-1.1168-0.2823-1.71s0.1023-1.17 0.2823-1.71v-2.3318h-3.0068c-0.6096 1.215-0.9573 2.5895-0.9573 4.0418 0 1.4522 0.3477 2.8268 0.9573 4.0418l3.0068-2.3318z" clip-rule="evenodd" fill="#FBBC05" fill-rule="evenodd"/>
<path d="m20.5 15.289c1.3213 0 2.5077 0.4541 3.4404 1.3459l2.5814-2.5814c-1.5587-1.4523-3.5959-2.3441-6.0218-2.3441-3.5182 0-6.5619 2.0168-8.0428 4.9582l3.0068 2.3318c0.7078-2.1272 2.6919-3.7104 5.036-3.7104z" clip-rule="evenodd" fill="#EA4335" fill-rule="evenodd"/>
<rect x="1" y="1.2092" width="39" height="39" rx="1.5" stroke="#4285F4"/>
</svg>
