<?xml version="1.0" encoding="UTF-8"?>
<svg fill="none" viewBox="0 0 161 103" xmlns="http://www.w3.org/2000/svg">
<g clip-path="url(#a)">
<path d="m80.5 102.44c44.183 0 80-7.8303 80-17.49 0-9.6592-35.817-17.49-80-17.49-44.183 0-80 7.8304-80 17.49 0 9.6593 35.817 17.49 80 17.49z" fill="#DAE2E8"/>
<path d="m138 34.38-25.365-28.738c-1.217-1.9588-2.995-3.1431-4.867-3.1431h-54.536c-1.8725 0-3.65 1.1843-4.8675 3.1406l-25.365 28.743v23.084h115v-23.086z" fill="#7C8C98"/>
<path d="m104.53 42.302c0-4.0101 2.485-7.3206 5.567-7.3231h27.9v45.316c0 5.3043-3.3 9.6518-7.375 9.6518h-100.25c-4.075 0-7.375-4.35-7.375-9.6518v-45.316h27.9c3.0825 0 5.5675 3.3055 5.5675 7.3156v0.055c0 4.0101 2.5125 7.2482 5.5925 7.2482h36.88c3.08 0 5.593-3.2681 5.593-7.2782v-0.0175z" fill="#899DA9"/>
</g>
<defs>
<clipPath id="a">
<rect transform="translate(.5)" width="160" height="102.44" fill="#fff"/>
</clipPath>
</defs>
</svg>
