<?xml version="1.0" encoding="UTF-8"?>
<svg viewBox="0 0 416 64" xmlns="http://www.w3.org/2000/svg">
<path d="m62.483 14.144-13.396 36.312h-8.16l-9.384-25.024-9.52 25.024h-8.16l-13.328-36.312h8.024l9.588 26.792 9.996-26.792h7.14l9.792 26.928 9.86-26.928h7.548z" fill="#fff"/>
<path d="m88.411 50.932c-3.672 0-6.9813-0.7933-9.928-2.38-2.9466-1.5867-5.2586-3.7853-6.936-6.596-1.632-2.856-2.448-6.0747-2.448-9.656s0.816-6.7773 2.448-9.588c1.6774-2.8107 3.9894-5.0093 6.936-6.596 2.9467-1.5867 6.256-2.38 9.928-2.38 3.7174 0 7.0494 0.7933 9.996 2.38 2.9467 1.5867 5.2357 3.7853 6.8677 6.596 1.678 2.8107 2.516 6.0067 2.516 9.588s-0.838 6.8-2.516 9.656c-1.632 2.8107-3.921 5.0093-6.8677 6.596-2.9466 1.5867-6.2786 2.38-9.996 2.38zm0-7.276c3.128 0 5.712-1.0427 7.752-3.128s3.06-4.828 3.06-8.228-1.02-6.1427-3.06-8.228-4.624-3.128-7.752-3.128-5.712 1.0427-7.752 3.128c-1.9946 2.0853-2.992 4.828-2.992 8.228s0.9974 6.1427 2.992 8.228c2.04 2.0853 4.624 3.128 7.752 3.128z" fill="#fff"/>
<path d="m128.77 19.448c2.448-3.808 6.755-5.712 12.92-5.712v8.092c-0.725-0.136-1.382-0.204-1.972-0.204-3.309 0-5.893 0.9747-7.752 2.924-1.858 1.904-2.788 4.6693-2.788 8.296v17.612h-8.5v-36.312h8.092v5.304z" fill="#fff"/>
<path d="m168.49 34.884-6.324 5.984v9.588h-8.5v-50.456h8.5v30.464l17.612-16.32h10.2l-15.164 15.232 16.592 21.08h-10.336l-12.58-15.572z" fill="#fff"/>
<path d="m211.74 50.932c-2.947 0-5.826-0.3853-8.636-1.156-2.811-0.7707-5.055-1.7453-6.732-2.924l3.264-6.46c1.632 1.088 3.581 1.972 5.848 2.652 2.312 0.6347 4.578 0.952 6.8 0.952 5.077 0 7.616-1.3373 7.616-4.012 0-1.2693-0.658-2.1533-1.972-2.652-1.27-0.4987-3.332-0.9747-6.188-1.428-2.992-0.4533-5.44-0.9747-7.344-1.564-1.859-0.5893-3.491-1.6093-4.896-3.06-1.36-1.496-2.04-3.5587-2.04-6.188 0-3.4453 1.428-6.188 4.284-8.228 2.901-2.0853 6.8-3.128 11.696-3.128 2.493 0 4.986 0.2947 7.48 0.884 2.493 0.544 4.533 1.292 6.12 2.244l-3.264 6.46c-3.083-1.8133-6.551-2.72-10.404-2.72-2.494 0-4.398 0.3853-5.712 1.156-1.27 0.7253-1.904 1.7-1.904 2.924 0 1.36 0.68 2.3347 2.04 2.924 1.405 0.544 3.558 1.0653 6.46 1.564 2.901 0.4533 5.281 0.9747 7.14 1.564 1.858 0.5893 3.445 1.5867 4.76 2.992 1.36 1.4053 2.04 3.4 2.04 5.984 0 3.4-1.474 6.12-4.42 8.16-2.947 2.04-6.959 3.06-12.036 3.06z" fill="#fff"/>
<path d="m260.41 13.736c3.536 0 6.686 0.7707 9.452 2.312 2.81 1.5413 5.009 3.7173 6.596 6.528 1.586 2.8107 2.38 6.052 2.38 9.724s-0.794 6.936-2.38 9.792c-1.587 2.8107-3.786 4.9867-6.596 6.528-2.766 1.5413-5.916 2.312-9.452 2.312-4.896 0-8.772-1.632-11.628-4.896v17.612h-8.5v-49.504h8.092v4.76c1.405-1.7227 3.128-3.0147 5.168-3.876 2.085-0.8613 4.374-1.292 6.868-1.292zm-0.952 29.92c3.128 0 5.689-1.0427 7.684-3.128 2.04-2.0853 3.06-4.828 3.06-8.228s-1.02-6.1427-3.06-8.228c-1.995-2.0853-4.556-3.128-7.684-3.128-2.04 0-3.876 0.476-5.508 1.428-1.632 0.9067-2.924 2.2213-3.876 3.944s-1.428 3.7173-1.428 5.984 0.476 4.2613 1.428 5.984 2.244 3.06 3.876 4.012c1.632 0.9067 3.468 1.36 5.508 1.36z" fill="#fff"/>
<path d="m305.06 13.736c5.349 0 9.429 1.292 12.24 3.876 2.856 2.5387 4.284 6.392 4.284 11.56v21.284h-8.024v-4.42c-1.043 1.5867-2.539 2.8107-4.488 3.672-1.904 0.816-4.216 1.224-6.936 1.224s-5.1-0.4533-7.14-1.36c-2.04-0.952-3.627-2.244-4.76-3.876-1.088-1.6773-1.632-3.5587-1.632-5.644 0-3.264 1.201-5.8707 3.604-7.82 2.448-1.9947 6.279-2.992 11.492-2.992h9.384v-0.544c0-2.5387-0.771-4.488-2.312-5.848-1.496-1.36-3.74-2.04-6.732-2.04-2.04 0-4.057 0.3173-6.052 0.952-1.949 0.6347-3.604 1.5187-4.964 2.652l-3.332-6.188c1.904-1.4507 4.193-2.5613 6.868-3.332s5.508-1.156 8.5-1.156zm-1.156 31.008c2.131 0 4.012-0.476 5.644-1.428 1.677-0.9973 2.856-2.4027 3.536-4.216v-4.216h-8.772c-4.896 0-7.344 1.6093-7.344 4.828 0 1.5413 0.612 2.7653 1.836 3.672s2.924 1.36 5.1 1.36z" fill="#fff"/>
<path d="m354.25 50.932c-3.763 0-7.14-0.7933-10.132-2.38s-5.327-3.7853-7.004-6.596c-1.677-2.856-2.516-6.0747-2.516-9.656s0.839-6.7773 2.516-9.588 3.989-5.0093 6.936-6.596c2.992-1.5867 6.392-2.38 10.2-2.38 3.581 0 6.709 0.7253 9.384 2.176 2.72 1.4507 4.76 3.536 6.12 6.256l-6.528 3.808c-1.043-1.6773-2.357-2.924-3.944-3.74-1.541-0.8613-3.241-1.292-5.1-1.292-3.173 0-5.803 1.0427-7.888 3.128-2.085 2.04-3.128 4.7827-3.128 8.228s1.02 6.2107 3.06 8.296c2.085 2.04 4.737 3.06 7.956 3.06 1.859 0 3.559-0.408 5.1-1.224 1.587-0.8613 2.901-2.1307 3.944-3.808l6.528 3.808c-1.405 2.72-3.468 4.828-6.188 6.324-2.675 1.4507-5.78 2.176-9.316 2.176z" fill="#fff"/>
<path d="m415.46 32.504c0 0.5893-0.045 1.428-0.136 2.516h-28.492c0.499 2.6747 1.791 4.8053 3.876 6.392 2.131 1.5413 4.76 2.312 7.888 2.312 3.99 0 7.276-1.3147 9.86-3.944l4.556 5.236c-1.632 1.9493-3.694 3.4227-6.188 4.42-2.493 0.9973-5.304 1.496-8.432 1.496-3.989 0-7.502-0.7933-10.54-2.38-3.037-1.5867-5.394-3.7853-7.072-6.596-1.632-2.856-2.448-6.0747-2.448-9.656 0-3.536 0.794-6.7093 2.38-9.52 1.632-2.856 3.876-5.0773 6.732-6.664s6.075-2.38 9.656-2.38c3.536 0 6.687 0.7933 9.452 2.38 2.811 1.5413 4.987 3.74 6.528 6.596 1.587 2.8107 2.38 6.0747 2.38 9.792zm-18.36-11.968c-2.72 0-5.032 0.816-6.936 2.448-1.858 1.5867-2.992 3.7173-3.4 6.392h20.604c-0.362-2.6293-1.473-4.76-3.332-6.392-1.858-1.632-4.17-2.448-6.936-2.448z" fill="#fff"/>
</svg>
